<?xml version="1.0" encoding="utf-8"?>
<!-- Generator: Adobe Illustrator 16.0.0, SVG Export Plug-In . SVG Version: 6.00 Build 0)  -->
<!DOCTYPE svg PUBLIC "-//W3C//DTD SVG 1.1//EN" "http://www.w3.org/Graphics/SVG/1.1/DTD/svg11.dtd">
<svg version="1.1" id="Layer_1" xmlns="http://www.w3.org/2000/svg" xmlns:xlink="http://www.w3.org/1999/xlink" x="0px" y="0px"
	 width="300px" height="300px" viewBox="0 0 300 300" enable-background="new 0 0 300 300" xml:space="preserve">
<path fill="#FFFFFF" stroke="#000000" stroke-miterlimit="10" d="M291.006,57.407c-3.641,22.658-25.716,37.977-49.309,34.214
	c-23.593-3.761-39.768-25.179-36.129-47.837c3.641-22.659,25.715-37.979,49.309-34.216
	C278.469,13.331,294.644,34.747,291.006,57.407z"/>
<polygon fill="#FFFFFF" stroke="#000000" stroke-miterlimit="10" points="27.375,216.678 88.724,275.935 279.148,80.223 
	217.798,20.964 "/>
<polygon fill="#FFFFFF" stroke="#000000" stroke-miterlimit="10" points="27.375,216.678 9.494,291.946 88.724,275.935 "/>
<line fill="none" stroke="#000000" stroke-miterlimit="10" x1="203.091" y1="75.185" x2="64.937" y2="214.543"/>
<line fill="none" stroke="#000000" stroke-miterlimit="10" x1="227.945" y1="96.18" x2="87.514" y2="237.833"/>
<line fill="none" stroke="#000000" stroke-miterlimit="10" x1="203.656" y1="35.501" x2="264.636" y2="95.14"/>
<line fill="none" stroke="#000000" stroke-miterlimit="10" x1="282.664" y1="172.499" x2="282.668" y2="172.808"/>
<polygon points="12.74,277.897 9.494,291.946 23.907,288.963 "/>
</svg>
